<?xml version="1.0" encoding="utf-8"?>
<!-- Generator: Adobe Illustrator 23.0.1, SVG Export Plug-In . SVG Version: 6.00 Build 0)  -->
<svg version="1.1" id="Layer_1" xmlns="http://www.w3.org/2000/svg" xmlns:xlink="http://www.w3.org/1999/xlink" x="0px" y="0px"
	 viewBox="0 0 640 480" style="enable-background:new 0 0 640 480;" xml:space="preserve">
<path d="M307.54,110.06h-78.13h-48.75h-59.81H57.79l-0.31,47.09l63.38,0.53v127.5c0,9.63-1,16.38-3,20.25s-5.16,7.16-9.47,9.84
	s-10.22,4.03-17.72,4.03c-8.5,0-18.69-1-30.56-3V366c14.5,2.63,28,3.94,40.5,3.94c28.5,0,48.97-6.38,61.41-19.13
	s18.66-32.13,18.66-58.13V158.18l48.75,0.41V366h88.05c37.97,0,67.75-12.28,89.36-36.84c21.59-24.56,32.41-55.16,32.41-91.78
	c0-29.13-6.19-53.22-18.55-72.28c-1.1-1.69-2.21-3.33-3.33-4.94l64.13,0.53V366h60.75V160.69h63.38v-50.63H307.54z M345.92,165.09
	c8.98,5.31,16.5,14.56,22.55,27.75s9.08,27.53,9.08,43.03c0,22-5.3,41.16-15.91,57.47c-10.59,16.31-26.81,24.47-48.64,24.47h-24.7
	V159.08l44.04,0.37C337.24,160.77,341.77,162.64,345.92,165.09z"/>
</svg>
