<svg xmlns="http://www.w3.org/2000/svg" viewBox="0 0 179.64 90.76"><defs><style>.cls-1,.cls-5,.cls-6{fill:red;}.cls-1,.cls-2,.cls-3{opacity:0.35;}.cls-2{fill:blue;}.cls-3,.cls-4{fill:lime;}.cls-4,.cls-5{opacity:0.1;}</style></defs><title>logo</title><g id="planes"><polygon class="cls-1" points="0 58.05 65.52 58.05 107.36 33 43.59 33 0 58.05"/><rect class="cls-2" x="20.77" y="12.81" width="65.43" height="65.62"/><polygon class="cls-3" points="32.52 90.76 32.52 25.34 74.84 0 74.84 65.33 32.52 90.76"/><polygon id="green_half" data-name="green half" class="cls-4" points="32.52 25.34 53.68 12.67 53.68 78.05 32.52 90.76 32.52 25.34"/><polygon id="red_half" data-name="red half" class="cls-5" points="0 58.05 65.52 58.05 86.2 45.67 20.8 46.1 0 58.05"/><path class="cls-6" d="M733.77-118.26" transform="translate(0 -2.12)"/><polygon class="cls-5" points="32.52 58.05 53.68 45.88 86.2 45.67 65.52 58.05 32.52 58.05"/><polygon class="cls-5" points="0 58.05 20.8 46.1 32.52 46.1 32.52 58.05 0 58.05"/><polygon class="cls-5" points="107.36 33 86.2 45.67 86.2 33 107.36 33"/></g><g id="ORIGIN"><path d="M70.05,47.89c0,11.11-6.77,17-15,17-8.59,0-14.56-6.65-14.56-16.44,0-10.26,6.35-17,15-17C64.31,31.5,70.05,38.27,70.05,47.89ZM44.9,48.4c0,6.93,3.76,13.13,10.35,13.13s10.38-6.1,10.38-13.45c0-6.45-3.36-13.18-10.32-13.18S44.9,41.32,44.9,48.4Z" transform="translate(0 -2.12)"/><path d="M75.46,32.47a43.9,43.9,0,0,1,8-.7c4.44,0,7.37.85,9.39,2.67a8.13,8.13,0,0,1,2.53,6.15,8.53,8.53,0,0,1-6.1,8.25V49c2.47.87,4,3.2,4.75,6.56,1.06,4.52,1.83,7.62,2.49,8.89H92.22a42.57,42.57,0,0,1-2.12-7.76c-1-4.43-2.72-6.15-6.5-6.28h-4v14H75.46Zm4.18,14.74h4.27c4.48,0,7.31-2.44,7.31-6.15,0-4.21-3-6-7.44-6a18.4,18.4,0,0,0-4.14.37Z" transform="translate(0 -2.12)"/><path d="M105.51,32V64.41H101.3V32Z" transform="translate(0 -2.12)"/><path d="M137.47,63a29.4,29.4,0,0,1-10,1.78c-4.91,0-9-1.24-12.11-4.28-2.79-2.68-4.51-7-4.5-12,0-9.66,6.66-16.73,17.51-16.73a20.19,20.19,0,0,1,8.09,1.49l-1,3.41a16.45,16.45,0,0,0-7.15-1.39c-7.86,0-13,4.89-13,13s4.92,13.06,12.5,13.06a13.43,13.43,0,0,0,5.56-.87V50.76H126.8V47.41h10.67Z" transform="translate(0 -2.12)"/><path d="M148,32V64.41h-4.2V32Z" transform="translate(0 -2.12)"/><path d="M155.3,64.41V32h4.6l10.37,16.36a92.55,92.55,0,0,1,5.78,10.55l.11-.06c-.38-4.32-.46-8.27-.46-13.28V32h3.94V64.41h-4.25L165.1,48a107,107,0,0,1-6-10.84l-.14.05c.25,4.1.31,8,.31,13.36V64.41Z" transform="translate(0 -2.12)"/></g><g id="text"><path d="M95.68,73.2c-.06-1.13-.14-2.49-.13-3.49h0c-.28.94-.62,2-1,3.07L93.07,76.7h-.79L91,72.85c-.38-1.14-.7-2.18-.92-3.14h0c0,1-.08,2.35-.16,3.57l-.22,3.47h-1l.56-8.09h1.34l1.38,3.92c.33,1,.6,1.88.81,2.72h0c.22-.82.5-1.71.86-2.72l1.44-3.92H96.4l.5,8.09h-1Z" transform="translate(0 -2.12)"/><path d="M101.77,76.75l-.1-.73h0a2.16,2.16,0,0,1-1.77.87,1.66,1.66,0,0,1-1.78-1.67c0-1.41,1.25-2.18,3.49-2.16v-.13a1.2,1.2,0,0,0-1.32-1.34,2.73,2.73,0,0,0-1.51.44l-.24-.71a3.63,3.63,0,0,1,1.91-.51c1.78,0,2.21,1.22,2.21,2.38v2.17a8.47,8.47,0,0,0,.09,1.39Zm-.17-3c-1.14,0-2.45.18-2.45,1.3a.93.93,0,0,0,1,1,1.45,1.45,0,0,0,1.41-1,1,1,0,0,0,0-.33Z" transform="translate(0 -2.12)"/><path d="M105.38,73.61h0c.14-.21.34-.46.5-.66l1.72-2h1.26l-2.24,2.38,2.56,3.42h-1.29l-2-2.79-.54.61v2.18h-1V68.23h1Z" transform="translate(0 -2.12)"/><path d="M110.57,74a1.86,1.86,0,0,0,2,2,4,4,0,0,0,1.61-.3l.18.75a4.65,4.65,0,0,1-1.94.37A2.7,2.7,0,0,1,109.56,74c0-1.76,1-3.14,2.73-3.14a2.46,2.46,0,0,1,2.39,2.74,2,2,0,0,1,0,.49Zm3.09-.76a1.5,1.5,0,0,0-1.45-1.71,1.75,1.75,0,0,0-1.63,1.71Z" transform="translate(0 -2.12)"/><path d="M116,72.75c0-.68,0-1.27,0-1.8h.92l0,1.14h0a1.77,1.77,0,0,1,1.62-1.28,1.36,1.36,0,0,1,.29,0v1a1.31,1.31,0,0,0-.36,0,1.47,1.47,0,0,0-1.41,1.35,2.56,2.56,0,0,0,0,.49v3.1H116Z" transform="translate(0 -2.12)"/><path d="M119.77,75.68a2.89,2.89,0,0,0,1.4.41c.78,0,1.13-.38,1.13-.86s-.3-.78-1.08-1.07c-1-.38-1.54-1-1.54-1.64a1.8,1.8,0,0,1,2-1.71,2.77,2.77,0,0,1,1.42.36l-.26.77a2.28,2.28,0,0,0-1.19-.34c-.63,0-1,.36-1,.79s.34.7,1.1,1c1,.38,1.52.88,1.52,1.75,0,1-.8,1.75-2.17,1.75a3.3,3.3,0,0,1-1.63-.41Z" transform="translate(0 -2.12)"/><path d="M124.68,72.84c0-.74,0-1.35-.05-1.89h.94l.06,1h0a2.26,2.26,0,0,1,2.06-1.13c1.4,0,2.46,1.19,2.46,3,0,2.09-1.28,3.13-2.64,3.13a2,2,0,0,1-1.79-.92h0v3.16h-1Zm1,1.55a2,2,0,0,0,0,.43,1.62,1.62,0,0,0,1.58,1.24c1.12,0,1.77-.92,1.77-2.25,0-1.16-.61-2.16-1.73-2.16A1.67,1.67,0,0,0,125.8,73a1.55,1.55,0,0,0-.07.43Z" transform="translate(0 -2.12)"/><path d="M134.73,76.75l-.09-.73h0a2.18,2.18,0,0,1-1.78.87,1.66,1.66,0,0,1-1.77-1.67c0-1.41,1.24-2.18,3.49-2.16v-.13a1.21,1.21,0,0,0-1.33-1.34,2.76,2.76,0,0,0-1.51.44l-.24-.71a3.67,3.67,0,0,1,1.92-.51c1.77,0,2.21,1.22,2.21,2.38v2.17a9.83,9.83,0,0,0,.08,1.39Zm-.16-3c-1.14,0-2.45.18-2.45,1.3a.92.92,0,0,0,1,1,1.46,1.46,0,0,0,1.42-1,1.32,1.32,0,0,0,0-.33Z" transform="translate(0 -2.12)"/><path d="M141.44,76.54a3.87,3.87,0,0,1-1.66.34,2.76,2.76,0,0,1-2.9-3A3,3,0,0,1,140,70.82a3.32,3.32,0,0,1,1.47.31l-.24.81a2.53,2.53,0,0,0-1.23-.28,2,2,0,0,0-2.05,2.2A2,2,0,0,0,140,76a3,3,0,0,0,1.29-.28Z" transform="translate(0 -2.12)"/><path d="M143.2,74a1.86,1.86,0,0,0,2,2,4,4,0,0,0,1.61-.3l.18.75a4.65,4.65,0,0,1-1.94.37A2.7,2.7,0,0,1,142.19,74c0-1.76,1-3.14,2.73-3.14a2.46,2.46,0,0,1,2.39,2.74,2,2,0,0,1,0,.49Zm3.09-.76a1.5,1.5,0,0,0-1.46-1.71,1.75,1.75,0,0,0-1.62,1.71Z" transform="translate(0 -2.12)"/></g></svg>